# xmcd CD database file
#
# Track frame offsets:
#	150
#	13457
#	27756
#	41618
#	56825
#	67920
#	83651
#	96409
#	109697
#	121508
#	134305
#	147150
#	160349
#	174940
#	188609
#	199543
#	214141
#	227250
#	241290
#	255189
#	266842
#	278290
#
# Disc length: 3854 seconds
#
# Revision: 0
# Processed by: cddbd v1.5.2PL0 Copyright (c) Steve Scherf et al.
# Submitted via: CDex 1.51
#
DISCID=1e0f0c16
DTITLE=Johnny Fuller - West Coast R and B And Blues Legend Vol. 1
DYEAR=1970
DGENRE=Blues
TTITLE0=Prowling Blues
TTITLE1=Hard Times
TTITLE2=It's Your Life
TTITLE3=Buddy
TTITLE4=Back Home
TTITLE5=Johnny's Lowdown Blues
TTITLE6=Train Train Blues
TTITLE7=Black Cat
TTITLE8=Mean Old World
TTITLE9=How Long
TTITLE10=Roughest Place In Town
TTITLE11=Comin' Round The Corner
TTITLE12=Too Late To Change
TTITLE13=Mama Told Me
TTITLE14=I Can't Succeed
TTITLE15=Sunny Road
TTITLE16=Johnny Ace's Last Letter
TTITLE17=Fool's Paradise
TTITLE18=My Heart Beats For You
TTITLE19=Cruel, Cruel World
TTITLE20=These Young Girls
TTITLE21=I Walk All Night
EXTD=YEAR: 1970
EXTT0=
EXTT1=
EXTT2=
EXTT3=
EXTT4=
EXTT5=
EXTT6=
EXTT7=
EXTT8=
EXTT9=
EXTT10=
EXTT11=
EXTT12=
EXTT13=
EXTT14=
EXTT15=
EXTT16=
EXTT17=
EXTT18=
EXTT19=
EXTT20=
EXTT21=
PLAYORDER=
